<?xml version="1.0" encoding="UTF-8" standalone="no"?>
<!-- Created with Inkscape (http://www.inkscape.org/) -->

<svg
   xmlns:dc="http://purl.org/dc/elements/1.1/"
   xmlns:cc="http://creativecommons.org/ns#"
   xmlns:rdf="http://www.w3.org/1999/02/22-rdf-syntax-ns#"
   xmlns:svg="http://www.w3.org/2000/svg"
   xmlns="http://www.w3.org/2000/svg"
   xmlns:xlink="http://www.w3.org/1999/xlink"
   xmlns:sodipodi="http://sodipodi.sourceforge.net/DTD/sodipodi-0.dtd"
   xmlns:inkscape="http://www.inkscape.org/namespaces/inkscape"
   width="7.1875"
   height="4.78125"
   id="svg3419"
   version="1.1"
   inkscape:version="0.48.4 r9939"
   sodipodi:docname="F_BP_VerEntsorgung_zweckbestimmung_2800.svg">
  <defs
     id="defs3421" />
  <sodipodi:namedview
     id="base"
     pagecolor="#ffffff"
     bordercolor="#666666"
     borderopacity="1.0"
     inkscape:pageopacity="0.0"
     inkscape:pageshadow="2"
     inkscape:zoom="16"
     inkscape:cx="13.609381"
     inkscape:cy="-1.7327589"
     inkscape:document-units="px"
     inkscape:current-layer="layer1"
     showgrid="false"
     fit-margin-top="0"
     fit-margin-left="0"
     fit-margin-right="0"
     fit-margin-bottom="0"
     inkscape:window-width="1855"
     inkscape:window-height="1056"
     inkscape:window-x="65"
     inkscape:window-y="24"
     inkscape:window-maximized="1" />
  <metadata
     id="metadata3424">
    <rdf:RDF>
      <cc:Work
         rdf:about="">
        <dc:format>image/svg+xml</dc:format>
        <dc:type
           rdf:resource="http://purl.org/dc/dcmitype/StillImage" />
        <dc:title />
      </cc:Work>
    </rdf:RDF>
  </metadata>
  <g
     inkscape:label="Ebene 1"
     inkscape:groupmode="layer"
     id="layer1"
     transform="translate(0,-1047.7813)">
    <use
       xlink:href="#SymbolElektrizitaet"
       transform="matrix(0.1,0,0,0.1,15,1055.2813)"
       id="use28595"
       x="0"
       y="0"
       width="1"
       height="1" />
    <use
       xlink:href="#SymbolElektrizitaet"
       transform="matrix(0.1,0,0,0.1,15,1055.2813)"
       id="use28595-7"
       x="0"
       y="0"
       width="1"
       height="1" />
    <path
       sodipodi:type="arc"
       style="fill:#ffffff;stroke:#000000;stroke-width:0.10030583000000000;stroke-miterlimit:4;stroke-opacity:1;stroke-dasharray:none"
       id="path30088"
       sodipodi:cx="16.114649"
       sodipodi:cy="8.6942673"
       sodipodi:rx="2.0382166"
       sodipodi:ry="1.9745224"
       d="m 18.152865,8.6942673 c 0,1.0904986 -0.91254,1.9745227 -2.038216,1.9745227 -1.125676,0 -2.038217,-0.8840241 -2.038217,-1.9745227 0,-1.0904986 0.912541,-1.9745224 2.038217,-1.9745224 1.125676,0 2.038216,0.8840238 2.038216,1.9745224 z"
       transform="matrix(-0.95058205,0,0,-0.98125961,18.912046,1058.7033)" />
    <g
       style="font-size:2px;font-style:normal;font-variant:normal;font-weight:normal;font-stretch:normal;text-align:start;line-height:125%;letter-spacing:0px;word-spacing:0px;writing-mode:lr-tb;text-anchor:start;fill:#000000;fill-opacity:1;stroke:none;font-family:Sans;-inkscape-font-specification:Sans"
       id="text3047">
      <path
         d="m 2.4912109,1049.4429 0.921875,0 0,0.166 -0.7246093,0 0,0.4316 0.6943359,0 0,0.166 -0.6943359,0 0,0.5284 0.7421875,0 0,0.166 -0.9394532,0 0,-1.458"
         id="path2996"
         style="" />
      <path
         d="m 3.7568359,1049.4429 0.921875,0 0,0.166 -0.7246093,0 0,0.4316 0.6943359,0 0,0.166 -0.6943359,0 0,0.5284 0.7421875,0 0,0.166 -0.9394532,0 0,-1.458"
         id="path2998"
         style="" />
    </g>
  </g>
</svg>
