<?xml version="1.0" encoding="UTF-8" standalone="no"?>
<!-- Created with Inkscape (http://www.inkscape.org/) -->

<svg
   xmlns:dc="http://purl.org/dc/elements/1.1/"
   xmlns:cc="http://creativecommons.org/ns#"
   xmlns:rdf="http://www.w3.org/1999/02/22-rdf-syntax-ns#"
   xmlns:svg="http://www.w3.org/2000/svg"
   xmlns="http://www.w3.org/2000/svg"
   xmlns:xlink="http://www.w3.org/1999/xlink"
   xmlns:sodipodi="http://sodipodi.sourceforge.net/DTD/sodipodi-0.dtd"
   xmlns:inkscape="http://www.inkscape.org/namespaces/inkscape"
   width="7.1875"
   height="4.78125"
   id="svg3419"
   version="1.1"
   inkscape:version="0.48.3.1 r9886"
   sodipodi:docname="F_BP_VerEntsorgung_zweckbestimmung_1000.svg">
  <defs
     id="defs3421" />
  <sodipodi:namedview
     id="base"
     pagecolor="#ffffff"
     bordercolor="#666666"
     borderopacity="1.0"
     inkscape:pageopacity="0.0"
     inkscape:pageshadow="2"
     inkscape:zoom="45.254834"
     inkscape:cx="0.68402636"
     inkscape:cy="3.4003831"
     inkscape:document-units="px"
     inkscape:current-layer="layer1"
     showgrid="false"
     fit-margin-top="0"
     fit-margin-left="0"
     fit-margin-right="0"
     fit-margin-bottom="0"
     inkscape:window-width="1920"
     inkscape:window-height="1030"
     inkscape:window-x="0"
     inkscape:window-y="27"
     inkscape:window-maximized="1" />
  <metadata
     id="metadata3424">
    <rdf:RDF>
      <cc:Work
         rdf:about="">
        <dc:format>image/svg+xml</dc:format>
        <dc:type
           rdf:resource="http://purl.org/dc/dcmitype/StillImage" />
        <dc:title />
      </cc:Work>
    </rdf:RDF>
  </metadata>
  <g
     inkscape:label="Ebene 1"
     inkscape:groupmode="layer"
     id="layer1"
     transform="translate(0,-1047.7813)">
    <use
       xlink:href="#SymbolElektrizitaet"
       transform="matrix(0.1,0,0,0.1,15,1055.2813)"
       id="use28595"
       x="0"
       y="0"
       width="1"
       height="1" />
    <use
       xlink:href="#SymbolElektrizitaet"
       transform="matrix(0.1,0,0,0.1,15,1055.2813)"
       id="use28595-7"
       x="0"
       y="0"
       width="1"
       height="1" />
    <path
       sodipodi:type="arc"
       style="fill:#ffffff;stroke:#000000;stroke-width:0.10030583000000000;stroke-miterlimit:4;stroke-opacity:1;stroke-dasharray:none;fill-opacity:1"
       id="path30088"
       sodipodi:cx="16.114649"
       sodipodi:cy="8.6942673"
       sodipodi:rx="2.0382166"
       sodipodi:ry="1.9745224"
       d="m 18.152865,8.6942673 c 0,1.0904986 -0.91254,1.9745227 -2.038216,1.9745227 -1.125676,0 -2.038217,-0.8840241 -2.038217,-1.9745227 0,-1.0904986 0.912541,-1.9745224 2.038217,-1.9745224 1.125676,0 2.038216,0.8840238 2.038216,1.9745224 z"
       transform="matrix(0.95058205,0,0,0.98125961,-11.724546,1041.6406)" />
    <path
       style="fill:#000000;fill-opacity:1;stroke:#000000;stroke-width:0;stroke-miterlimit:4;stroke-opacity:1;stroke-dasharray:none"
       d="m 3.1544854,1052.1137 c -0.012816,0 -0.069148,-0.022 -0.125181,-0.04 -0.8050776,-0.2725 -1.3486994,-1.0286 -1.3486994,-1.8757 0,-0.6834 0.3458758,-1.3115 0.9262727,-1.6822 0.092454,-0.058 0.2713634,-0.1471 0.3728393,-0.1836 0.1051449,-0.038 0.3095943,-0.093 0.3168037,-0.086 0.00515,0 -0.3278207,2.0038 -0.3414107,2.0494 -0.00336,0.011 -0.00181,0.02 0.00343,0.02 0.00525,-2e-4 0.1091415,-0.077 0.2308969,-0.1697 0.1988789,-0.1524 0.2217112,-0.1669 0.2246987,-0.1426 0.00277,0.022 -0.1683937,1.8661 -0.1910177,2.0574 -0.00749,0.064 -0.011393,0.067 -0.068634,0.052 z"
       id="path30730"
       inkscape:connector-curvature="0" />
  </g>
</svg>
