<?xml version="1.0" encoding="UTF-8" standalone="no"?>
<!-- Created with Inkscape (http://www.inkscape.org/) -->

<svg
   xmlns:dc="http://purl.org/dc/elements/1.1/"
   xmlns:cc="http://creativecommons.org/ns#"
   xmlns:rdf="http://www.w3.org/1999/02/22-rdf-syntax-ns#"
   xmlns:svg="http://www.w3.org/2000/svg"
   xmlns="http://www.w3.org/2000/svg"
   xmlns:sodipodi="http://sodipodi.sourceforge.net/DTD/sodipodi-0.dtd"
   xmlns:inkscape="http://www.inkscape.org/namespaces/inkscape"
   width="7.1875"
   height="4.78125"
   id="svg3419"
   version="1.1"
   inkscape:version="0.48.4 r9939"
   sodipodi:docname="F_BP_GruenFlaeche_zweckbestimmung_1200.svg">
  <defs
     id="defs3421" />
  <sodipodi:namedview
     id="base"
     pagecolor="#ffffff"
     bordercolor="#666666"
     borderopacity="1.0"
     inkscape:pageopacity="0.0"
     inkscape:pageshadow="2"
     inkscape:zoom="83.032678"
     inkscape:cx="4.7525404"
     inkscape:cy="2.390625"
     inkscape:document-units="px"
     inkscape:current-layer="layer1"
     showgrid="false"
     fit-margin-top="0"
     fit-margin-left="0"
     fit-margin-right="0"
     fit-margin-bottom="0"
     inkscape:window-width="1855"
     inkscape:window-height="1056"
     inkscape:window-x="65"
     inkscape:window-y="24"
     inkscape:window-maximized="1" />
  <metadata
     id="metadata3424">
    <rdf:RDF>
      <cc:Work
         rdf:about="">
        <dc:format>image/svg+xml</dc:format>
        <dc:type
           rdf:resource="http://purl.org/dc/dcmitype/StillImage" />
        <dc:title />
      </cc:Work>
    </rdf:RDF>
  </metadata>
  <g
     inkscape:label="Ebene 1"
     inkscape:groupmode="layer"
     id="layer1"
     transform="translate(0,-1047.7813)">
    <path
       sodipodi:type="arc"
       style="fill:#000000;fill-opacity:1;stroke:#000000;stroke-width:0.1;stroke-miterlimit:4;stroke-opacity:1;stroke-dasharray:none"
       id="path15451-9-3"
       sodipodi:cx="2.0055194"
       sodipodi:cy="2.2221904"
       sodipodi:rx="1.0091467"
       sodipodi:ry="1.1198548"
       d="m 3.0146661,2.2221904 c 0,0.6184787 -0.4518104,1.1198548 -1.0091467,1.1198548 -0.5573363,0 -1.0091467,-0.5013761 -1.0091467,-1.1198548 0,-0.6184788 0.4518104,-1.1198548 1.0091467,-1.1198548 0.5573363,0 1.0091467,0.501376 1.0091467,1.1198548 z"
       transform="matrix(0.20973724,0,0,0.1879923,3.1731178,1050.9182)" />
    <path
       style="fill:none;stroke:#000000;stroke-width:0.30000001;stroke-linecap:butt;stroke-linejoin:miter;stroke-miterlimit:4;stroke-opacity:1;stroke-dasharray:none"
       d="m 0.02554802,1050.1719 7.13641288,0 0,0"
       id="path18324"
       inkscape:connector-curvature="0" />
    <path
       style="fill:none;stroke:#000000;stroke-width:0.3;stroke-linecap:butt;stroke-linejoin:miter;stroke-miterlimit:4;stroke-opacity:1;stroke-dasharray:none"
       d="m 2.4166667,1047.8191 0,4.7435"
       id="path18328"
       inkscape:connector-curvature="0" />
    <path
       style="fill:none;stroke:#000000;stroke-width:0.3;stroke-linecap:butt;stroke-linejoin:miter;stroke-miterlimit:4;stroke-opacity:1;stroke-dasharray:none"
       d="m 4.7708333,1047.8106 0,4.752"
       id="path18330"
       inkscape:connector-curvature="0" />
    <path
       sodipodi:type="arc"
       style="fill:#000000;fill-opacity:1;stroke:#000000;stroke-width:0.1;stroke-miterlimit:4;stroke-opacity:1;stroke-dasharray:none"
       id="path15451-9-3-2"
       sodipodi:cx="2.0055194"
       sodipodi:cy="2.2221904"
       sodipodi:rx="1.0091467"
       sodipodi:ry="1.1198548"
       d="m 3.0146661,2.2221904 c 0,0.6184787 -0.4518104,1.1198548 -1.0091467,1.1198548 -0.5573363,0 -1.0091467,-0.5013761 -1.0091467,-1.1198548 0,-0.6184788 0.4518104,-1.1198548 1.0091467,-1.1198548 0.5573363,0 1.0091467,0.501376 1.0091467,1.1198548 z"
       transform="matrix(0.20973724,0,0,0.1879923,5.527285,1050.9182)" />
    <path
       sodipodi:type="arc"
       style="fill:#000000;fill-opacity:1;stroke:#000000;stroke-width:0.1;stroke-miterlimit:4;stroke-opacity:1;stroke-dasharray:none"
       id="path15451-9-3-4"
       sodipodi:cx="2.0055194"
       sodipodi:cy="2.2221904"
       sodipodi:rx="1.0091467"
       sodipodi:ry="1.1198548"
       d="m 3.0146661,2.2221904 c 0,0.6184787 -0.4518104,1.1198548 -1.0091467,1.1198548 -0.5573363,0 -1.0091467,-0.5013761 -1.0091467,-1.1198548 0,-0.6184788 0.4518104,-1.1198548 1.0091467,-1.1198548 0.5573363,0 1.0091467,0.501376 1.0091467,1.1198548 z"
       transform="matrix(0.20973724,0,0,0.1879923,0.81895128,1050.9182)" />
    <path
       sodipodi:type="arc"
       style="fill:#000000;fill-opacity:1;stroke:#000000;stroke-width:0.1;stroke-miterlimit:4;stroke-opacity:1;stroke-dasharray:none"
       id="path15451-9-3-5"
       sodipodi:cx="2.0055194"
       sodipodi:cy="2.2221904"
       sodipodi:rx="1.0091467"
       sodipodi:ry="1.1198548"
       d="m 3.0146661,2.2221904 c 0,0.6184787 -0.4518104,1.1198548 -1.0091467,1.1198548 -0.5573363,0 -1.0091467,-0.5013761 -1.0091467,-1.1198548 0,-0.6184788 0.4518104,-1.1198548 1.0091467,-1.1198548 0.5573363,0 1.0091467,0.501376 1.0091467,1.1198548 z"
       transform="matrix(0.20973724,0,0,0.1879923,0.81895128,1048.5901)" />
    <path
       sodipodi:type="arc"
       style="fill:#000000;fill-opacity:1;stroke:#000000;stroke-width:0.1;stroke-miterlimit:4;stroke-opacity:1;stroke-dasharray:none"
       id="path15451-9-3-8"
       sodipodi:cx="2.0055194"
       sodipodi:cy="2.2221904"
       sodipodi:rx="1.0091467"
       sodipodi:ry="1.1198548"
       d="m 3.0146661,2.2221904 c 0,0.6184787 -0.4518104,1.1198548 -1.0091467,1.1198548 -0.5573363,0 -1.0091467,-0.5013761 -1.0091467,-1.1198548 0,-0.6184788 0.4518104,-1.1198548 1.0091467,-1.1198548 0.5573363,0 1.0091467,0.501376 1.0091467,1.1198548 z"
       transform="matrix(0.20973724,0,0,0.1879923,3.1731178,1048.5901)" />
    <path
       sodipodi:type="arc"
       style="fill:#000000;fill-opacity:1;stroke:#000000;stroke-width:0.1;stroke-miterlimit:4;stroke-opacity:1;stroke-dasharray:none"
       id="path15451-9-3-40"
       sodipodi:cx="2.0055194"
       sodipodi:cy="2.2221904"
       sodipodi:rx="1.0091467"
       sodipodi:ry="1.1198548"
       d="m 3.0146661,2.2221904 c 0,0.6184787 -0.4518104,1.1198548 -1.0091467,1.1198548 -0.5573363,0 -1.0091467,-0.5013761 -1.0091467,-1.1198548 0,-0.6184788 0.4518104,-1.1198548 1.0091467,-1.1198548 0.5573363,0 1.0091467,0.501376 1.0091467,1.1198548 z"
       transform="matrix(0.20973724,0,0,0.1879923,5.527285,1048.5901)" />
    <rect
       style="fill:none;stroke:#000000;stroke-width:0.28670701;stroke-miterlimit:4;stroke-opacity:1;stroke-dasharray:none"
       id="rect18428"
       width="6.9503813"
       height="4.5162935"
       x="0.13662487"
       y="1047.9198" />
  </g>
</svg>
