<?xml version="1.0" encoding="UTF-8" standalone="no"?>
<!-- Created with Inkscape (http://www.inkscape.org/) -->

<svg
   xmlns:dc="http://purl.org/dc/elements/1.1/"
   xmlns:cc="http://creativecommons.org/ns#"
   xmlns:rdf="http://www.w3.org/1999/02/22-rdf-syntax-ns#"
   xmlns:svg="http://www.w3.org/2000/svg"
   xmlns="http://www.w3.org/2000/svg"
   xmlns:sodipodi="http://sodipodi.sourceforge.net/DTD/sodipodi-0.dtd"
   xmlns:inkscape="http://www.inkscape.org/namespaces/inkscape"
   width="7.1875"
   height="4.78125"
   id="svg3419"
   version="1.1"
   inkscape:version="0.48.4 r9939"
   sodipodi:docname="F_BP_GruenFlaeche_zweckbestimmung_1000.svg">
  <defs
     id="defs3421" />
  <sodipodi:namedview
     id="base"
     pagecolor="#ffffff"
     bordercolor="#666666"
     borderopacity="1.0"
     inkscape:pageopacity="0.0"
     inkscape:pageshadow="2"
     inkscape:zoom="83.032678"
     inkscape:cx="4.0916336"
     inkscape:cy="2.390625"
     inkscape:document-units="px"
     inkscape:current-layer="layer1"
     showgrid="false"
     fit-margin-top="0"
     fit-margin-left="0"
     fit-margin-right="0"
     fit-margin-bottom="0"
     inkscape:window-width="1855"
     inkscape:window-height="1056"
     inkscape:window-x="65"
     inkscape:window-y="24"
     inkscape:window-maximized="1" />
  <metadata
     id="metadata3424">
    <rdf:RDF>
      <cc:Work
         rdf:about="">
        <dc:format>image/svg+xml</dc:format>
        <dc:type
           rdf:resource="http://purl.org/dc/dcmitype/StillImage" />
        <dc:title />
      </cc:Work>
    </rdf:RDF>
  </metadata>
  <g
     inkscape:label="Ebene 1"
     inkscape:groupmode="layer"
     id="layer1"
     transform="translate(0,-1047.7813)">
    <rect
       style="fill:none;stroke:#000000;stroke-width:0.28576115;stroke-miterlimit:4;stroke-opacity:1;stroke-dasharray:none"
       id="rect15447"
       width="6.9031529"
       height="4.51724"
       x="0.1481954"
       y="1047.9313" />
    <g
       id="g16003"
       transform="translate(-0.1362561,0)">
      <path
         transform="matrix(0.34321311,0,0,0.31334339,0.79628541,1050.6144)"
         d="m 3.0146661,2.2221904 c 0,0.6184787 -0.4518104,1.1198548 -1.0091467,1.1198548 -0.5573363,0 -1.0091467,-0.5013761 -1.0091467,-1.1198548 0,-0.6184788 0.4518104,-1.1198548 1.0091467,-1.1198548 0.5573363,0 1.0091467,0.501376 1.0091467,1.1198548 z"
         sodipodi:ry="1.1198548"
         sodipodi:rx="1.0091467"
         sodipodi:cy="2.2221904"
         sodipodi:cx="2.0055194"
         id="path15451"
         style="fill:#000000;fill-opacity:1;stroke:#000000;stroke-width:0.1;stroke-miterlimit:4;stroke-opacity:1;stroke-dasharray:none"
         sodipodi:type="arc" />
      <path
         transform="matrix(0.34321311,0,0,0.31334339,5.2870857,1050.6144)"
         d="m 3.0146661,2.2221904 c 0,0.6184787 -0.4518104,1.1198548 -1.0091467,1.1198548 -0.5573363,0 -1.0091467,-0.5013761 -1.0091467,-1.1198548 0,-0.6184788 0.4518104,-1.1198548 1.0091467,-1.1198548 0.5573363,0 1.0091467,0.501376 1.0091467,1.1198548 z"
         sodipodi:ry="1.1198548"
         sodipodi:rx="1.0091467"
         sodipodi:cy="2.2221904"
         sodipodi:cx="2.0055194"
         id="path15451-9"
         style="fill:#000000;fill-opacity:1;stroke:#000000;stroke-width:0.1;stroke-miterlimit:4;stroke-opacity:1;stroke-dasharray:none"
         sodipodi:type="arc" />
    </g>
    <path
       sodipodi:type="arc"
       style="fill:#000000;fill-opacity:1;stroke:#000000;stroke-width:0.1;stroke-miterlimit:4;stroke-opacity:1;stroke-dasharray:none"
       id="path15451-9-3"
       sodipodi:cx="2.0055194"
       sodipodi:cy="2.2221904"
       sodipodi:rx="1.0091467"
       sodipodi:ry="1.1198548"
       d="m 3.0146661,2.2221904 c 0,0.6184787 -0.4518104,1.1198548 -1.0091467,1.1198548 -0.5573363,0 -1.0091467,-0.5013761 -1.0091467,-1.1198548 0,-0.6184788 0.4518104,-1.1198548 1.0091467,-1.1198548 0.5573363,0 1.0091467,0.501376 1.0091467,1.1198548 z"
       transform="matrix(0.34321311,0,0,0.31334339,2.9054295,1048.3662)" />
  </g>
</svg>
