<?xml version="1.0" encoding="UTF-8" standalone="no"?>
<!-- Created with Inkscape (http://www.inkscape.org/) -->

<svg
   xmlns:dc="http://purl.org/dc/elements/1.1/"
   xmlns:cc="http://creativecommons.org/ns#"
   xmlns:rdf="http://www.w3.org/1999/02/22-rdf-syntax-ns#"
   xmlns:svg="http://www.w3.org/2000/svg"
   xmlns="http://www.w3.org/2000/svg"
   xmlns:xlink="http://www.w3.org/1999/xlink"
   xmlns:sodipodi="http://sodipodi.sourceforge.net/DTD/sodipodi-0.dtd"
   xmlns:inkscape="http://www.inkscape.org/namespaces/inkscape"
   width="7.1875"
   height="4.78125"
   id="svg3419"
   version="1.1"
   inkscape:version="0.48.3.1 r9886"
   sodipodi:docname="F_BP_VerEntsorgung_zweckbestimmung_1600.svg">
  <defs
     id="defs3421" />
  <sodipodi:namedview
     id="base"
     pagecolor="#ffffff"
     bordercolor="#666666"
     borderopacity="1.0"
     inkscape:pageopacity="0.0"
     inkscape:pageshadow="2"
     inkscape:zoom="45.254834"
     inkscape:cx="0.68402636"
     inkscape:cy="3.4003831"
     inkscape:document-units="px"
     inkscape:current-layer="layer1"
     showgrid="false"
     fit-margin-top="0"
     fit-margin-left="0"
     fit-margin-right="0"
     fit-margin-bottom="0"
     inkscape:window-width="1920"
     inkscape:window-height="1030"
     inkscape:window-x="0"
     inkscape:window-y="27"
     inkscape:window-maximized="1" />
  <metadata
     id="metadata3424">
    <rdf:RDF>
      <cc:Work
         rdf:about="">
        <dc:format>image/svg+xml</dc:format>
        <dc:type
           rdf:resource="http://purl.org/dc/dcmitype/StillImage" />
        <dc:title />
      </cc:Work>
    </rdf:RDF>
  </metadata>
  <g
     inkscape:label="Ebene 1"
     inkscape:groupmode="layer"
     id="layer1"
     transform="translate(0,-1047.7813)">
    <use
       xlink:href="#SymbolElektrizitaet"
       transform="matrix(0.1,0,0,0.1,15,1055.2813)"
       id="use28595"
       x="0"
       y="0"
       width="1"
       height="1" />
    <use
       xlink:href="#SymbolElektrizitaet"
       transform="matrix(0.1,0,0,0.1,15,1055.2813)"
       id="use28595-7"
       x="0"
       y="0"
       width="1"
       height="1" />
    <path
       sodipodi:type="arc"
       style="fill:#ffffff;stroke:#000000;stroke-width:0.10030583000000000;stroke-miterlimit:4;stroke-opacity:1;stroke-dasharray:none"
       id="path30088"
       sodipodi:cx="16.114649"
       sodipodi:cy="8.6942673"
       sodipodi:rx="2.0382166"
       sodipodi:ry="1.9745224"
       d="m 18.152865,8.6942673 c 0,1.0904986 -0.91254,1.9745227 -2.038216,1.9745227 -1.125676,0 -2.038217,-0.8840241 -2.038217,-1.9745227 0,-1.0904986 0.912541,-1.9745224 2.038217,-1.9745224 1.125676,0 2.038216,0.8840238 2.038216,1.9745224 z"
       transform="matrix(-0.95058205,0,0,-0.98125961,18.912046,1058.7033)" />
    <path
       style="fill:#000000;fill-opacity:1;stroke:#000000;stroke-width:0.101;stroke-miterlimit:4;stroke-opacity:1;stroke-dasharray:none"
       d="M 3.4420344,4.269999 C 3.0112039,4.2334226 2.6059967,4.0501338 2.2889449,3.7484179 2.1768056,3.6417028 2.0635072,3.5006749 1.9807349,3.3647741 c -0.0357,-0.058614 -0.0388,-0.053704 0.065506,-0.1037528 0.1479659,-0.070998 0.2976821,-0.107443 0.4682489,-0.1139831 0.1501306,-0.00576 0.2668059,0.010102 0.4197325,0.057049 0.089851,0.027583 0.093045,0.029027 0.4492188,0.2030172 0.3938327,0.1923864 0.5040083,0.2351539 0.6854802,0.2660869 0.099291,0.016925 0.2616102,0.011507 0.3483492,-0.011627 0.1465517,-0.039087 0.2588385,-0.09842 0.4302814,-0.2273629 0.060559,-0.045547 0.127686,-0.093903 0.1491704,-0.1074577 0.087939,-0.055481 0.3007813,-0.146397 0.3007813,-0.1284785 0,0.012722 -0.09807,0.180695 -0.1484621,0.2542826 C 4.8749088,3.8528652 4.4552617,4.134635 3.9850032,4.2341345 3.8227115,4.268473 3.5985016,4.2832826 3.4420344,4.269999 z"
       id="path37874"
       inkscape:connector-curvature="0"
       transform="translate(0,1047.7813)" />
  </g>
</svg>
