<?xml version="1.0" encoding="UTF-8" standalone="no"?>
<!-- Created with Inkscape (http://www.inkscape.org/) -->

<svg
   xmlns:dc="http://purl.org/dc/elements/1.1/"
   xmlns:cc="http://creativecommons.org/ns#"
   xmlns:rdf="http://www.w3.org/1999/02/22-rdf-syntax-ns#"
   xmlns:svg="http://www.w3.org/2000/svg"
   xmlns="http://www.w3.org/2000/svg"
   xmlns:sodipodi="http://sodipodi.sourceforge.net/DTD/sodipodi-0.dtd"
   xmlns:inkscape="http://www.inkscape.org/namespaces/inkscape"
   width="7.1875"
   height="4.78125"
   id="svg3419"
   version="1.1"
   inkscape:version="0.48.4 r9939"
   sodipodi:docname="F_BP_GruenFlaeche_zweckbestimmung_2000.svg">
  <defs
     id="defs3421">
    <inkscape:path-effect
       effect="spiro"
       id="path-effect20002"
       is_visible="true" />
    <inkscape:path-effect
       effect="spiro"
       id="path-effect19998"
       is_visible="true" />
  </defs>
  <sodipodi:namedview
     id="base"
     pagecolor="#ffffff"
     bordercolor="#666666"
     borderopacity="1.0"
     inkscape:pageopacity="0.0"
     inkscape:pageshadow="2"
     inkscape:zoom="105.60636"
     inkscape:cx="4.4990027"
     inkscape:cy="2.3785796"
     inkscape:document-units="px"
     inkscape:current-layer="layer1"
     showgrid="false"
     fit-margin-top="0"
     fit-margin-left="0"
     fit-margin-right="0"
     fit-margin-bottom="0"
     inkscape:window-width="1855"
     inkscape:window-height="1056"
     inkscape:window-x="65"
     inkscape:window-y="24"
     inkscape:window-maximized="1" />
  <metadata
     id="metadata3424">
    <rdf:RDF>
      <cc:Work
         rdf:about="">
        <dc:format>image/svg+xml</dc:format>
        <dc:type
           rdf:resource="http://purl.org/dc/dcmitype/StillImage" />
        <dc:title />
      </cc:Work>
    </rdf:RDF>
  </metadata>
  <g
     inkscape:label="Ebene 1"
     inkscape:groupmode="layer"
     id="layer1"
     transform="translate(0,-1047.7813)">
    <rect
       style="fill:none;stroke:#000000;stroke-width:0.28635362;stroke-miterlimit:4;stroke-opacity:1;stroke-dasharray:none"
       id="rect18428"
       width="6.9290419"
       height="4.519042"
       x="0.12449453"
       y="1047.9171" />
    <g
       id="g22548"
       transform="matrix(0.96594806,0,0,0.96594806,0.33347234,35.738113)"
       style="stroke-width:0.20705047;stroke-miterlimit:4;stroke-dasharray:none">
      <path
         sodipodi:nodetypes="cssssc"
         inkscape:connector-curvature="0"
         id="path22392"
         d="m 0.23146003,1048.7042 c 0,0 0.45451811,-0.4546 1.05107307,-0.047 0.5531404,0.3776 0.9039916,0.7294 1.3919617,0.1704 0.4211832,-0.4824 0.9079158,-0.3556 1.1860433,-0.1934 0.4565742,0.2663 0.9067823,0.8112 1.4653167,0.1663 0.5099596,-0.5888 1.1931054,-0.1427 1.1931054,-0.1427"
         style="fill:none;stroke:#000000;stroke-width:0.20705047;stroke-linecap:butt;stroke-linejoin:miter;stroke-miterlimit:4;stroke-opacity:1;stroke-dasharray:none" />
      <path
         sodipodi:nodetypes="cssssc"
         inkscape:connector-curvature="0"
         id="path22392-6"
         d="m 0.23146003,1049.2609 c 0,0 0.45451801,-0.4546 1.05107307,-0.047 0.5531404,0.3776 0.9039916,0.7294 1.3919617,0.1704 0.4211832,-0.4824 0.9079158,-0.3556 1.1860433,-0.1934 0.4565742,0.2663 0.9067823,0.8112 1.4653167,0.1663 0.5099596,-0.5888 1.1931054,-0.1427 1.1931054,-0.1427"
         style="fill:none;stroke:#000000;stroke-width:0.20705047;stroke-linecap:butt;stroke-linejoin:miter;stroke-miterlimit:4;stroke-opacity:1;stroke-dasharray:none" />
      <path
         sodipodi:nodetypes="cssssc"
         inkscape:connector-curvature="0"
         id="path22392-0"
         d="m 0.23146003,1049.8176 c 0,0 0.45451811,-0.4546 1.05107307,-0.047 0.5531404,0.3776 0.9039916,0.7294 1.3919617,0.1704 0.4211832,-0.4824 0.9079158,-0.3556 1.1860433,-0.1934 0.4565742,0.2663 0.9067823,0.8112 1.4653167,0.1663 0.5099596,-0.5888 1.1931054,-0.1427 1.1931054,-0.1427"
         style="fill:none;stroke:#000000;stroke-width:0.20705047;stroke-linecap:butt;stroke-linejoin:miter;stroke-miterlimit:4;stroke-opacity:1;stroke-dasharray:none" />
      <path
         sodipodi:nodetypes="cssssc"
         inkscape:connector-curvature="0"
         id="path22392-4"
         d="m 0.23146003,1050.3744 c 0,0 0.45451811,-0.4546 1.05107307,-0.047 0.5531404,0.3776 0.9039916,0.7294 1.3919617,0.1704 0.4211832,-0.4824 0.9079158,-0.3556 1.1860433,-0.1934 0.4565742,0.2663 0.9067823,0.8112 1.4653167,0.1663 0.5099596,-0.5888 1.1931054,-0.1427 1.1931054,-0.1427"
         style="fill:none;stroke:#000000;stroke-width:0.20705047;stroke-linecap:butt;stroke-linejoin:miter;stroke-miterlimit:4;stroke-opacity:1;stroke-dasharray:none" />
      <path
         sodipodi:nodetypes="cssssc"
         inkscape:connector-curvature="0"
         id="path22392-3"
         d="m 0.23146003,1050.9311 c 0,0 0.45451811,-0.4546 1.05107307,-0.047 0.5531404,0.3776 0.9039916,0.7294 1.3919617,0.1704 0.4211832,-0.4824 0.9079158,-0.3556 1.1860433,-0.1934 0.4565742,0.2663 0.9067823,0.8112 1.4653167,0.1663 0.5099596,-0.5888 1.1931054,-0.1427 1.1931054,-0.1427"
         style="fill:none;stroke:#000000;stroke-width:0.20705047;stroke-linecap:butt;stroke-linejoin:miter;stroke-miterlimit:4;stroke-opacity:1;stroke-dasharray:none" />
      <path
         sodipodi:nodetypes="cssssc"
         inkscape:connector-curvature="0"
         id="path22392-9"
         d="m 0.23146003,1051.4878 c 0,0 0.45451811,-0.4546 1.05107297,-0.047 0.5531404,0.3776 0.9039916,0.7294 1.3919617,0.1704 0.4211832,-0.4824 0.9079158,-0.3556 1.1860433,-0.1934 0.4565742,0.2663 0.9067823,0.8112 1.4653167,0.1663 0.5099596,-0.5888 1.1931054,-0.1427 1.1931054,-0.1427"
         style="fill:none;stroke:#000000;stroke-width:0.20705047;stroke-linecap:butt;stroke-linejoin:miter;stroke-miterlimit:4;stroke-opacity:1;stroke-dasharray:none" />
    </g>
  </g>
</svg>
